<?xml version="1.0" encoding="UTF-8"?>
<svg id="Layer_1" data-name="Layer 1" xmlns="http://www.w3.org/2000/svg" viewBox="0 0 1080 575.88">
  <path d="M179.81,345.84c-30.31,53.86-55.84,115.17-86.16,166.88-1.68,2.86-5.2,4.32-5.64,8.02l-1.47-1.09c1.37-1.97-.26-4.73.07-6.16,3.68-15.92,27.03-62.11,35.31-79.33,21.63-45.02,47.76-87.93,70.27-132.48-4.76-32.54-1.86-62.14-.9-94.28.51-17.03-2.19-38.58.43-55.13,1.72-10.86,11.41-9.25,12.52,3.89,1.92,22.73-5.72,56.29-6.29,80.32-.1,4.17,1.07,49.2,3.54,49.53,21.4-35.12,41.08-71.68,64.32-105.66,11.84-17.3,39.29-56.14,55.89-66.54,45.87-28.73,30.95,81.85,28.29,100.81-7.42,52.83-36.07,127.42-79.1,161.08-52.19,40.84-68.15-15.02-76.44-56.92-3.03-.82-13.03,24.19-14.65,27.07ZM331.89,118.53c-16.57,3-83.03,105.18-94.78,124.34-5.13,8.36-32.51,53.44-33.71,59.09-1.96,9.23,7.21,48.69,11.39,58.11,24.76,55.75,79.59-17.81,94.06-44.68,23.89-44.37,37.22-110.44,36.59-160.74-.07-5.64-3.38-34.4-8.43-36.11-1.48-.5-3.57-.29-5.12,0Z"/>
  <path d="M942.43,146.15c-27.75,23.98-69.41,41.02-100.59,62-5.96,4.01-29.82,21.26-32.84,25.65-.57.83-3.79,8.16-3.53,8.54l30.25,6.9c8.98-2.47,34.05.62,30.37,15.14-3,11.83-45.53,37.19-56.66,45.49-5.29,3.94-40.14,29.66-41.31,32-1.67,3.34-6.88,33.81-4.37,34.6.2.06,2.17-3.15,3.39-.24,1.76,4.2-3.76,8.13-7.29,7.69-10.45-1.29-.57-27.93-3.1-33.94-15.97,13.83-33.61,25.32-50.69,37.43-10.86,7.7-49.94,38.88-60.85,38.26-4.82-.28-7.42-5.08-4.33-7.51,2.31-1.82,6.11,1.03,7.12.87,2.61-.42,39.06-24.49,44.34-28.17,18.17-12.67,38.19-27.32,55.03-40.89,18.52-14.92,14.17-21.52,20.91-41.48,16.54-48.98,37.79-92.78,64.62-137.36,8.19-13.61,16.59-27.28,27.17-39.89-2.98,1.83-6.93,2.56-9.91,4.12-15.16,7.98-72.46,50.73-83.43,50.74-9.79,0,1.36-6.09,5.26-8.84,45.92-32.4,98.3-64.04,153.36-84.46,19.33-7.17,56.49-25.44,51.2,11.41-1.49,10.36-25.6,34.59-34.11,41.95ZM965.97,90.43c-35.84,4.5-67.21,25.17-100.46,38.08-.67,2.07,3.11,5.59,3.12,5.93.07,2.29-16.71,24.63-19.34,28.92-10.01,16.31-18.97,33.42-28.22,50.14l2.07-3.2c7.61,1.15,6.33-4.47,9.99-6.96,5.14-3.51,14.09-8.95,19.72-12.43,2.53-1.56,5.64-.77,6.39-1.22,2.11-1.25,4.08-5.12,5.31-5.85,30.77-18.2,83.42-41.84,100.57-75.45,3.32-6.5,4.87-11.13.85-17.96ZM854.43,259.65l-52.87-8.33c-12.43,25.24-23.33,51.61-29.63,79.14,26.94-20.82,55.77-39.45,81.12-62.19-.22-3.97,3.46-4.65,1.38-8.62Z"/>
  <path d="M712.67,193.99c4.49,4.62-7.81,9.11-8.54,9.79-14.98,13.86-29.98,32.22-46.33,44.52-36.55,27.5-139.6,69.35-179.97,37.44-4.28-3.38-12.99-19.26-14.04-19.87-.66-.38-1.77-.26-2.54-.12-3,.55-21.97,22.3-26.17,26.13-9.41,8.58-41.49,36.21-52.36,38.1-21.25,3.69-.51-28.27,4.42-34.57,1.15-1.47,3.88-1.37,4.71-2.37,6.35-7.66,13.34-17.7,21.36-24.59,4.46-3.83,18.66-16.06,22.04-7.19,3.9,10.25-7.07,7.58-13.72,11.62-1.95,1.18-10.41,9.61-12.7,11.87-9.61,9.49-17.75,20.71-24.46,32.45,2.13.1,4.09.2,6.19-.43,9.46-2.86,45.96-40.5,56.19-49.08,25.32-21.23,18.55-4.29,36.27,9.75,32.76,25.95,113.93-2.17,146.92-20.73,21.56-12.13,36.81-29.05,54.74-44.29,2.96-2.52,25.5-20.97,27.99-18.41Z"/>
  <path d="M937.99,307.12c1.7,3.15-17.79,14.67-18.69,2.6-.12-2.32,6.27-7.1,8.29-7.31,1.89-.2,10.13,4.21,10.4,4.72Z"/>
  <path d="M573.54,180.27c1.17,1.11,2.26,2.73,3.7,3.79l-.24,2.55-13.68.37c-2.49-2.6-.56-16.93,10.21-6.71Z"/>
</svg>