<?xml version="1.0" encoding="UTF-8" standalone="no"?><!DOCTYPE svg PUBLIC "-//W3C//DTD SVG 1.1//EN" "http://www.w3.org/Graphics/SVG/1.1/DTD/svg11.dtd"><svg width="100%" height="100%" viewBox="0 0 489 437" version="1.1" xmlns="http://www.w3.org/2000/svg" xmlns:xlink="http://www.w3.org/1999/xlink" xml:space="preserve" xmlns:serif="http://www.serif.com/" style="fill-rule:evenodd;clip-rule:evenodd;stroke-linejoin:round;stroke-miterlimit:2;"><rect id="User-Icon2" serif:id="User Icon2" x="0" y="0" width="488.4" height="436.32" style="fill:none;"/><g><path d="M262.151,213.595c7.839,3.666 15.06,8.693 21.297,14.93c14.089,14.089 22.005,33.199 22.005,53.124l0,10.641c-0,9.096 -7.374,16.47 -16.47,16.47l-134.58,0c-9.096,-0 -16.47,-7.374 -16.47,-16.47l-0,-10.641c0,-19.925 7.915,-39.035 22.005,-53.124c6.237,-6.237 13.457,-11.264 21.297,-14.93c9.637,11.631 24.189,19.045 40.459,19.045c16.27,0 30.822,-7.414 40.459,-19.045Z"/><circle cx="221.693" cy="180.12" r="47.52"/></g></svg>