<?xml version="1.0" encoding="UTF-8" standalone="no"?><!DOCTYPE svg PUBLIC "-//W3C//DTD SVG 1.1//EN" "http://www.w3.org/Graphics/SVG/1.1/DTD/svg11.dtd"><svg width="100%" height="100%" viewBox="0 0 842 842" version="1.1" xmlns="http://www.w3.org/2000/svg" xmlns:xlink="http://www.w3.org/1999/xlink" xml:space="preserve" xmlns:serif="http://www.serif.com/" style="fill-rule:evenodd;clip-rule:evenodd;stroke-linejoin:round;stroke-miterlimit:2;"><g id="XDesignLogo_v2-01.png"><path d="M648.684,249.415c74.769,73.505 85.512,182.487 49.822,261.223c-20.937,46.189 -34.056,50.262 -31.1,53.783c13.008,15.494 70.682,80.823 71.524,83.326c3.215,9.551 -5.234,11.006 -25.597,22.667c-0.094,0.054 -26.856,14.713 -40.588,22.393c-4.662,2.607 -66.574,-2.924 -94.878,-4.013c-8.713,-0.335 -41.894,-2.401 -45.536,-2.627c-8.627,-0.537 -8.467,-1.931 -19.577,-15.119c-10.229,-12.142 -10.398,-12.153 -11.015,-12.056c-8.702,1.358 -60.722,29.944 -137.235,23.483c-173.852,-14.681 -293.744,-196.718 -222.748,-370.344c12.01,-29.371 27.01,-48.458 26.781,-49.907c-0.183,-1.152 -64.521,-76.229 -65.502,-78.607c-2.105,-5.102 -0.801,-13.45 9.406,-14.1c7.532,-0.479 66.192,-4.213 94.183,-5.413c15.25,-0.654 15.389,-2.233 23.119,0.076c2.575,0.769 2.63,0.458 32.397,8.893c7.583,2.149 8.045,1.931 8.685,1.631c41.959,-19.717 89.217,-33.166 157.256,-23.891c24.72,3.37 55.764,15.044 60.463,16.811c90.544,34.049 105.978,37.717 138.792,63.155c1.792,1.389 12.842,9.955 21.348,18.634Zm-486.365,-72.963c-3.982,0.213 -49.453,2.639 -49.764,2.943c-0.842,0.823 4.183,5.546 28.212,34.552c7.683,9.275 40.235,47.046 40.055,48.226c-0.627,4.115 -80.897,95.456 -37.031,234.576c32.765,103.912 150.54,206.135 306.189,169.23c3.837,-0.91 29.44,-7.692 52.511,-19.817c1.786,-0.938 2.057,0.09 21.995,23.851c4.884,5.82 4.906,6.238 8.451,6.452c84.93,5.123 84.937,4.844 92.319,5.316c3.362,0.215 41.78,2.673 42.04,2.424c0.965,-0.925 -0.623,-0.746 -10.545,-12.955c-5.222,-6.426 -75.003,-86.075 -74.994,-87.096c0.028,-3.227 27.292,-25.246 48.583,-86.074c19.447,-55.561 19.304,-128.894 -12.198,-194.899c-8.855,-18.554 -20.189,-36.53 -34.261,-53.369c-12.838,-15.362 -27.956,-29.778 -45.553,-42.825c-20.586,-15.263 -48.193,-29.406 -69.562,-36.16c-2.944,-0.93 -91.632,-35.809 -190.884,11.158c-17.592,8.325 -29.34,17.154 -30.55,16.361c-1.816,-1.189 -20.802,-25.39 -23.22,-25.552c-2.497,-0.167 -2.477,0.153 -31.222,1.835c-17.692,1.035 -19.24,0.826 -30.571,1.823Z" style="fill-opacity:1;"/><path d="M617.498,420.06c-0.642,23.36 -3.828,81.746 -50.502,141.437c-0.186,0.238 -2.173,2.779 -2.809,2.526c-0.514,-0.205 -52.011,-59.407 -52.119,-60.308c-0.491,-4.068 44.223,-56.546 16.66,-141.104c-5.554,-17.04 -17.165,-34.389 -16.705,-35.372c0.66,-1.412 33.142,-38.474 36.053,-41.794c15.7,-17.913 15.893,-19.121 17.106,-18.028c2.926,2.636 24.331,31.879 34.493,57.823c11.65,29.741 18.017,54.629 17.824,94.822Z"/><path d="M218.239,415.697c0.478,55.752 24.419,80.31 21.893,83.472c-10.245,12.829 -36.386,43.314 -39.588,47.048c-1.198,1.397 -1.182,1.355 -2.291,2.78c-2.588,3.324 -3.327,2.838 -3.928,1.967c-65.397,-94.884 -48.047,-202.9 -0.095,-270.603c1.509,-2.131 1.987,-0.502 4.418,2.339c3.389,3.962 41.47,48.473 41.838,49.966c0.838,3.396 -21.789,29.171 -22.247,83.03Z"/><path d="M366.956,255.063c-12.796,1.451 -14.552,1.011 -32.474,5.702c-12.11,3.17 -24.438,9.877 -25.469,8.865c-0.699,-0.685 -39.505,-45.647 -42.872,-49.424c-1.828,-2.051 -4.127,-4.172 -2.563,-5.15c48.116,-30.081 133.853,-53.536 222.476,-10.686c2.322,1.123 -0.771,3.187 -2.723,5.69c-0.971,1.244 -41.818,49.776 -45.046,53.558c-3.554,4.164 -4.381,1.162 -9.609,-0.567c-30.858,-10.201 -54.481,-8.341 -61.72,-7.988l69.589,-4.348c0.503,-0.595 6.167,-7.3 6.284,-7.443c14.899,-18.133 18.731,-21.442 17.677,-22.113c-0.243,-0.155 -34.771,3.372 -67.882,21.22c-0.235,0.127 -5.274,2.843 -0.042,3.343c13.34,1.275 13.28,1.498 38.07,6.983c3.354,0.742 3.636,0.636 5.892,-1.99l-69.589,4.348Z" style="fill-opacity:1;"/><path d="M411.309,648.69c-77.52,8.738 -131.393,-23.42 -140.917,-28.569c-7.772,-4.202 -7.783,-4.673 -7.478,-5.342c0.097,-0.213 31.056,-35.922 32.08,-37.072c6.929,-7.782 6.683,-7.912 13.603,-15.763c2.592,-2.941 13.1,9.606 54.65,13.961c41.453,4.345 71.668,-10.969 73.653,-9.916c0.143,0.076 0.182,0.058 40.543,48.079c9.498,11.301 10.321,11.793 9.247,12.409c-3.416,1.961 -34.244,16.488 -66.64,20.991c-0.699,0.097 -8.334,1.159 -8.742,1.221l39.582,-51.089c-15.618,-18.603 -15.602,-19.681 -18.42,-19.142c-13.496,2.582 -13.366,3.007 -26.846,5.518c-9.014,1.679 -15.622,1.183 -15.33,4.501c0.093,1.055 16.354,8.825 27.902,12.966c22.126,7.935 43.486,10.122 43.577,10.074c1.25,-0.66 0.075,-1.132 -10.883,-13.917l-39.582,51.089Z" style="fill-opacity:1;"/><path d="M507.065,421.299c-1.078,15.101 -2.391,31.283 -15.153,56.244c-1.529,2.991 -2.422,0.499 -4.819,-2.313c-21.855,-25.644 -46.597,-53.795 -50.683,-58.443c-1.336,-1.52 -0.328,-2.058 7.134,-10.6c7.257,-8.307 35.424,-40.969 38.5,-44.535c8.004,-9.281 8.09,-9.946 8.955,-9.374c0.115,0.076 7.605,12.31 12.698,32.827c3.765,15.167 3.423,33.287 3.369,36.194Z"/><path d="M244.98,423.789c-0.65,-19.682 0.576,-37.556 11.849,-63.492c1.521,-3.499 1.802,-6.305 4.25,-3.387c48.861,58.257 49.051,58.218 49.016,58.776c-0.073,1.181 -34.398,41.289 -37.436,44.84c-11.967,13.984 -12.931,16.524 -14.016,14.325c-12.421,-25.172 -13.192,-46.695 -13.664,-51.062Z"/><path d="M360.078,546.985c-3.294,-0.53 -15.147,-1.816 -29.825,-7.361c-2.298,-0.868 -0.484,-2.116 2.39,-5.402c35.916,-41.066 35.409,-41.46 38.791,-44.781c0.846,-0.83 1.178,-0.109 10.222,10.723c33.334,39.927 35.774,40.879 33.443,41.718c-23.337,8.401 -50.624,5.56 -55.021,5.102Z"/><path d="M360.153,284.354c6.521,-0.65 6.452,-0.75 13.063,-0.922c20.707,-0.54 42.586,5.294 42.472,6.865c-0.074,1.016 -26.902,32.24 -29.282,35.01c-14.027,16.326 -14.057,17.064 -14.892,16.508c-0.739,-0.492 -15.443,-17.735 -16.77,-19.291c-24.481,-28.708 -27.227,-29.739 -24.507,-30.804c11.218,-4.394 27.482,-6.978 29.916,-7.365Z"/></g></svg>